<mxfile host="Electron" agent="Mozilla/5.0 (Macintosh; Intel Mac OS X 10_15_7) AppleWebKit/537.36 (KHTML, like Gecko) draw.io/24.7.17 Chrome/128.0.6613.36 Electron/32.0.1 Safari/537.36" version="24.7.17">
  <diagram name="Страница — 1" id="XKeW8CObiemMju7Xxtys">
    <mxGraphModel dx="984" dy="633" grid="1" gridSize="10" guides="1" tooltips="1" connect="1" arrows="1" fold="1" page="1" pageScale="1" pageWidth="827" pageHeight="1169" math="0" shadow="0">
      <root>
        <mxCell id="0" />
        <mxCell id="1" parent="0" />
        <mxCell id="xNBPyKkA1-kfr0iJPnqe-5" style="edgeStyle=orthogonalEdgeStyle;rounded=0;orthogonalLoop=1;jettySize=auto;html=1;exitX=0.5;exitY=1;exitDx=0;exitDy=0;" edge="1" parent="1" source="xNBPyKkA1-kfr0iJPnqe-1" target="xNBPyKkA1-kfr0iJPnqe-2">
          <mxGeometry relative="1" as="geometry" />
        </mxCell>
        <mxCell id="xNBPyKkA1-kfr0iJPnqe-1" value="Client" style="rounded=0;whiteSpace=wrap;html=1;" vertex="1" parent="1">
          <mxGeometry x="340" y="110" width="120" height="60" as="geometry" />
        </mxCell>
        <mxCell id="xNBPyKkA1-kfr0iJPnqe-6" style="edgeStyle=orthogonalEdgeStyle;rounded=0;orthogonalLoop=1;jettySize=auto;html=1;exitX=0.5;exitY=1;exitDx=0;exitDy=0;entryX=0.5;entryY=0;entryDx=0;entryDy=0;" edge="1" parent="1" source="xNBPyKkA1-kfr0iJPnqe-2" target="xNBPyKkA1-kfr0iJPnqe-3">
          <mxGeometry relative="1" as="geometry" />
        </mxCell>
        <mxCell id="xNBPyKkA1-kfr0iJPnqe-2" value="Load Balancer" style="rounded=0;whiteSpace=wrap;html=1;" vertex="1" parent="1">
          <mxGeometry x="340" y="230" width="120" height="60" as="geometry" />
        </mxCell>
        <mxCell id="xNBPyKkA1-kfr0iJPnqe-7" style="edgeStyle=orthogonalEdgeStyle;rounded=0;orthogonalLoop=1;jettySize=auto;html=1;exitX=0.5;exitY=1;exitDx=0;exitDy=0;entryX=0.5;entryY=0;entryDx=0;entryDy=0;" edge="1" parent="1" source="xNBPyKkA1-kfr0iJPnqe-3" target="xNBPyKkA1-kfr0iJPnqe-4">
          <mxGeometry relative="1" as="geometry" />
        </mxCell>
        <mxCell id="xNBPyKkA1-kfr0iJPnqe-3" value="SSL Termination Cluster" style="rounded=0;whiteSpace=wrap;html=1;" vertex="1" parent="1">
          <mxGeometry x="340" y="350" width="120" height="60" as="geometry" />
        </mxCell>
        <mxCell id="xNBPyKkA1-kfr0iJPnqe-4" value="Application Servers" style="rounded=0;whiteSpace=wrap;html=1;" vertex="1" parent="1">
          <mxGeometry x="340" y="470" width="120" height="60" as="geometry" />
        </mxCell>
      </root>
    </mxGraphModel>
  </diagram>
</mxfile>
